<?xml version="1.0"?><svg width="744.09448819" height="1052.3622047" xmlns="http://www.w3.org/2000/svg">
 <title>walking man black</title>
 <metadata id="metadata12390">image/svg+xmlOther map symbolsMohamed IbrahimPublic Domainclker.comother map symbols</metadata>
 <g>
  <title>Layer 1</title>
  <g id="svg_2">
   <path fill="#888888" fill-rule="nonzero" id="path4536" d="m381.655029,232.767944c54.159088,4.064087 101.071655,-33.21936 105.457794,-83.225128c4.195496,-50.005753 -36.042603,-93.473614 -90.201843,-97.714371c-53.587006,-3.710663 -100.88089,33.572739 -104.885742,83.578445c-4.576843,49.652359 35.661133,93.473709 89.629791,97.361053"/>
   <path fill="#888888" fill-rule="nonzero" id="path4538" d="m325.177307,265.208038c19.085938,-10.902863 42.329315,-18.120132 68.218414,-16.27739c33.25885,2.149811 60.470703,18.887924 77.100159,39.311508l97.886749,157.706818l133.602417,74.784058c11.338318,7.063904 18.519226,18.58075 17.007568,31.172729c-1.889893,19.502319 -22.865662,34.090515 -46.864929,32.401428c-7.369812,-0.307129 -13.416809,-2.764099 -20.030823,-5.22113l-145.696625,-81.54071c-4.535217,-2.917572 -8.125702,-6.603058 -11.1492,-10.442108l-36.471405,-59.12085l-44.030243,157.246124l172.152344,165.231262c3.968506,5.067627 6.614014,11.056396 8.125916,17.045288l46.486816,199.475342c-0.378052,4.453247 0.377869,7.217285 0,10.749207c-2.64563,29.790771 -34.392639,51.289307 -70.486206,49.139526c-30.046387,-1.99646 -52.155884,-19.963013 -59.147858,-42.22937l-43.841278,-186.88324l-140.027374,-124.384155l-32.314087,121.159363c-1.133698,5.681763 -10.393158,17.659424 -13.03894,22.4198l-134.358231,183.965759c-13.227936,16.738098 -35.715584,27.487244 -61.226555,25.798157c-36.47142,-2.149902 -63.49428,-27.947937 -60.470718,-57.431641c0.755875,-8.292358 5.10223,-17.045227 8.88166,-23.034058l124.720749,-169.99176l104.122986,-374.687988l-68.029602,44.686157l-36.093384,133.444214c-4.913315,17.19873 -23.999283,31.172729 -46.486862,29.79071c-24.377167,-1.535706 -42.140419,-18.580811 -40.250717,-38.390198c0,-1.535522 0.377869,-3.071228 0.755814,-4.914001l42.707397,-155.556824c2.645615,-6.603149 6.99205,-12.592072 13.416977,-17.198853l194.829071,-128.223175z"/>
  </g>
 </g>
</svg>
